# xmcd
#
# Track frame offsets: 
#        183
#        25003
#        37478
#        45460
#        64615
#        75783
#        104020
#        116408
#        130963
#        149108
#        172495
#        180270
#        207818
#        222488
#
# Disc length: 3343 seconds
#
# Revision: 6
# Processed by: cddbd v1.5.2PL0 Copyright (c) Steve Scherf et al.
# Submitted via: ExactAudioCopy v1.3
#
DISCID=cf0d0d0e
DTITLE=Orchestre de Paris - Requiem en Ré mineur K 626
DYEAR=1985
DGENRE=Classical
TTITLE0=Introitus: Requiem Aeternam
TTITLE1=Kyrie Eleison
TTITLE2=Dies Irae
TTITLE3=Tuba Mirum
TTITLE4=Rex Tremendae
TTITLE5=Recordare
TTITLE6=Confutatis
TTITLE7=Lacrimosa
TTITLE8=Domine Jesu Christe
TTITLE9=Hostias et Precis
TTITLE10=Sanctus
TTITLE11=Benedictus
TTITLE12=Agnus Dei
TTITLE13=Communio: Lux Aeterna
EXTD=
EXTT0=
EXTT1=
EXTT2=
EXTT3=
EXTT4=
EXTT5=
EXTT6=
EXTT7=
EXTT8=
EXTT9=
EXTT10=
EXTT11=
EXTT12=
EXTT13=
PLAYORDER=
